<svg xmlns="http://www.w3.org/2000/svg" xmlns:xlink="http://www.w3.org/1999/xlink" version="1.1" width="180" height="50" viewBox="0 0 180 50" xml:space="preserve">
<desc>Created with Fabric.js 3.5.0</desc>
<defs>
</defs>
<rect x="0" y="0" width="100%" height="100%" fill="none"/>
<g transform="matrix(1 0 0 1 520 520)" id="328313">
<g style="">
		<g transform="matrix(0.5642 0 0 0.5642 -237.8116 -0.0003)" id="700689">
<path style="stroke: none; stroke-width: 1; stroke-dasharray: none; stroke-linecap: butt; stroke-dashoffset: 0; stroke-linejoin: miter; stroke-miterlimit: 4; is-custom-font: none; font-file-url: none; fill: rgb(232,96,10); fill-rule: nonzero; opacity: 1;" transform=" translate(-44, -97.5)" d="m 0 0 h 48 l 16 3 l 10 6 l 8 9 l 5 13 l 2 14 v 106 l -2 15 l -4 10 l -7 9 l -9 6 l -10 3 l -7 1 h -50 l -1 -1 v -193 z" stroke-linecap="round"/>
</g>
		<g transform="matrix(0.5642 0 0 0.5642 -88.2979 -0.0003)" id="550398">
<path style="stroke: none; stroke-width: 1; stroke-dasharray: none; stroke-linecap: butt; stroke-dashoffset: 0; stroke-linejoin: miter; stroke-miterlimit: 4; is-custom-font: none; font-file-url: none; fill: rgb(232,96,10); fill-rule: nonzero; opacity: 1;" transform=" translate(-61, -97.5)" d="m 0 0 h 30 l 3 12 l 10 49 l 13 62 l 5 27 l 2 1 l 1 -8 l 11 -57 l 17 -85 l 1 -1 h 30 v 195 h -20 l -1 -1 v -136 l -1 -11 l -5 28 l -13 66 l -9 46 l -3 8 h -20 l -2 -6 l -13 -63 l -10 -48 l -5 -27 l -1 4 l -1 92 v 47 l -1 1 h -18 l -1 -153 v -40 z" stroke-linecap="round"/>
</g>
		<g transform="matrix(0.5642 0 0 0.5642 -418.0744 -0.0003)" id="479063">
<path style="stroke: none; stroke-width: 1; stroke-dasharray: none; stroke-linecap: butt; stroke-dashoffset: 0; stroke-linejoin: miter; stroke-miterlimit: 4; is-custom-font: none; font-file-url: none; fill: rgb(232,96,10); fill-rule: nonzero; opacity: 1;" transform=" translate(-43.5, -97.5)" d="m 0 0 h 47 l 16 3 l 10 6 l 6 7 l 4 8 l 3 15 v 28 l -2 12 l -5 10 l -9 9 l -4 2 l -1 2 l 6 2 l 7 7 l 6 12 l 2 11 l 1 39 l 1 22 h -20 l -2 -1 l -1 -4 l -2 -57 l -3 -10 l -2 -4 l -4 -2 l -7 -3 l -7 -1 l -19 -1 v 83 h -21 l -1 -1 v -193 z" stroke-linecap="round"/>
</g>
		<g transform="matrix(0.5642 0 0 0.5642 47.3929 -0.0003)" id="876728">
<path style="stroke: none; stroke-width: 1; stroke-dasharray: none; stroke-linecap: butt; stroke-dashoffset: 0; stroke-linejoin: miter; stroke-miterlimit: 4; is-custom-font: none; font-file-url: none; fill: rgb(232,96,10); fill-rule: nonzero; opacity: 1;" transform=" translate(-43.5, -97.5)" d="m 0 0 h 47 l 16 3 l 9 5 l 7 8 l 5 12 l 2 11 v 28 l -2 12 l -5 10 l -4 5 l -7 5 h -3 v 3 l 6 2 l 5 4 l 5 8 l 4 11 l 1 6 l 1 39 l 1 23 h -18 l -4 -2 l -1 -4 l -2 -57 l -4 -11 l -9 -6 l -9 -2 l -20 -1 v 82 l -1 1 h -21 v -194 z" stroke-linecap="round"/>
</g>
		<g transform="matrix(0.5642 0 0 0.5642 -15.2336 -0.0003)" id="807740">
<path style="stroke: none; stroke-width: 1; stroke-dasharray: none; stroke-linecap: butt; stroke-dashoffset: 0; stroke-linejoin: miter; stroke-miterlimit: 4; is-custom-font: none; font-file-url: none; fill: rgb(232,96,10); fill-rule: nonzero; opacity: 1;" transform=" translate(-15.5, -97.5)" d="m 0 0 h 31 l 3 13 l 13 68 l 10 52 l 11 58 v 4 h -21 l -2 -5 l -6 -32 v -2 h -49 l -5 30 l -2 9 h -20 l 1 -13 l 13 -66 l 12 -63 l 10 -52 z" stroke-linecap="round"/>
</g>
		<g transform="matrix(0.5642 0 0 0.5642 301.5663 -0.0003)" id="192753">
<path style="stroke: none; stroke-width: 1; stroke-dasharray: none; stroke-linecap: butt; stroke-dashoffset: 0; stroke-linejoin: miter; stroke-miterlimit: 4; is-custom-font: none; font-file-url: none; fill: rgb(232,96,10); fill-rule: nonzero; opacity: 1;" transform=" translate(-14, -97.5)" d="m 0 0 h 30 l 5 24 l 16 84 l 16 82 v 5 h -21 l -2 -5 l -6 -32 v -2 h -49 l -2 14 l -5 24 l -1 1 h -19 l -1 -2 l 10 -51 l 18 -95 l 9 -46 z" stroke-linecap="round"/>
</g>
		<g transform="matrix(0.5642 0 0 0.5642 -301.2845 -0.0003)" id="402944">
<path style="stroke: none; stroke-width: 1; stroke-dasharray: none; stroke-linecap: butt; stroke-dashoffset: 0; stroke-linejoin: miter; stroke-miterlimit: 4; is-custom-font: none; font-file-url: none; fill: rgb(232,96,10); fill-rule: nonzero; opacity: 1;" transform=" translate(-14.5, -97.5)" d="m 0 0 h 29 l 2 3 l 17 89 l 10 52 l 9 47 v 4 h -21 l -2 -5 l -6 -32 v -2 h -49 l -2 13 l -5 26 h -20 l 1 -11 l 8 -42 l 25 -131 l 2 -10 z" stroke-linecap="round"/>
</g>
		<g transform="matrix(0.5642 0 0 0.5642 242.325 -0.0003)" id="707411">
<path style="stroke: none; stroke-width: 1; stroke-dasharray: none; stroke-linecap: butt; stroke-dashoffset: 0; stroke-linejoin: miter; stroke-miterlimit: 4; is-custom-font: none; font-file-url: none; fill: rgb(232,96,10); fill-rule: nonzero; opacity: 1;" transform=" translate(-42, -97.5)" d="m 0 0 h 46 l 15 3 l 9 5 l 7 7 l 5 10 l 3 14 v 43 l -3 13 l -7 11 l -7 6 l -9 4 l -9 2 l -11 1 h -18 v 75 l -1 1 h -21 v -194 z" stroke-linecap="round"/>
</g>
		<g transform="matrix(0.5642 0 0 0.5642 363.6286 -0.0003)" id="45705">
<path style="stroke: none; stroke-width: 1; stroke-dasharray: none; stroke-linecap: butt; stroke-dashoffset: 0; stroke-linejoin: miter; stroke-miterlimit: 4; is-custom-font: none; font-file-url: none; fill: rgb(232,96,10); fill-rule: nonzero; opacity: 1;" transform=" translate(-5, -99.5)" d="m 0 0 h 9 l 14 3 l 8 4 l 6 5 l 7 11 l 4 13 l 1 8 v 23 h -21 l -1 -27 l -4 -11 l -5 -5 l -5 -2 h -14 l -8 4 l -4 5 l -3 9 v 118 l 3 11 l 4 5 l 6 3 l 4 1 h 8 l 10 -3 l 5 -6 l 3 -10 l 1 -32 l 1 -1 h 20 v 30 l -3 16 l -6 12 l -7 7 l -11 6 l -12 2 h -13 l -11 -3 l -9 -5 l -8 -9 l -4 -8 l -3 -12 l -1 -18 v -98 l 2 -15 l 4 -11 l 6 -8 l 9 -7 l 12 -4 z" stroke-linecap="round"/>
</g>
		<g transform="matrix(0.5642 0 0 0.5642 183.93 -0.0003)" id="127237">
<path style="stroke: none; stroke-width: 1; stroke-dasharray: none; stroke-linecap: butt; stroke-dashoffset: 0; stroke-linejoin: miter; stroke-miterlimit: 4; is-custom-font: none; font-file-url: none; fill: rgb(232,96,10); fill-rule: nonzero; opacity: 1;" transform=" translate(-5.5, -99.5)" d="m 0 0 h 9 l 12 2 l 9 4 l 8 7 l 6 9 l 4 12 l 1 6 v 14 h -20 l -2 -17 l -5 -10 l -5 -4 l -3 -1 h -15 l -6 3 l -4 5 l -3 7 l -1 5 v 9 l 3 12 l 7 11 l 6 7 l 8 7 l 14 12 l 8 7 l 9 11 l 8 16 l 2 10 v 12 l -2 13 l -4 10 l -6 8 l -7 6 l -8 4 l -11 2 h -12 l -14 -3 l -10 -6 l -6 -7 l -5 -11 l -3 -16 l -1 -16 l 1 -1 h 19 l 1 1 l 1 16 l 3 12 l 3 5 l 7 4 l 11 1 l 9 -2 l 5 -2 l 2 -5 l 3 -7 l 1 -6 v -9 l -4 -13 l -7 -10 l -12 -12 l -11 -9 l -10 -9 l -9 -10 l -8 -14 l -3 -11 v -22 l 4 -14 l 6 -10 l 8 -7 l 9 -4 z" stroke-linecap="round"/>
</g>
		<g transform="matrix(0.5642 0 0 0.5642 -156.5664 -0.0003)" id="948653">
<path style="stroke: none; stroke-width: 1; stroke-dasharray: none; stroke-linecap: butt; stroke-dashoffset: 0; stroke-linejoin: miter; stroke-miterlimit: 4; is-custom-font: none; font-file-url: none; fill: rgb(232,96,10); fill-rule: nonzero; opacity: 1;" transform=" translate(-6, -99.5)" d="m 0 0 h 9 l 12 2 l 12 6 l 7 7 l 6 12 l 3 13 v 14 h -20 l -2 -17 l -5 -10 l -5 -4 l -3 -1 h -15 l -6 3 l -4 5 l -3 7 l -1 5 v 9 l 2 9 l 5 10 l 9 11 l 8 7 l 14 12 l 8 7 l 10 13 l 7 14 l 2 11 v 11 l -2 13 l -4 10 l -6 8 l -9 7 l -6 3 l -13 2 h -10 l -14 -3 l -10 -6 l -6 -7 l -5 -11 l -3 -14 v -19 h 19 l 1 1 l 2 21 l 3 8 l 2 4 l 7 4 l 11 1 l 9 -2 l 5 -2 l 2 -5 l 3 -7 l 1 -6 v -9 l -4 -13 l -7 -10 l -12 -12 l -11 -9 l -10 -9 l -9 -10 l -8 -14 l -3 -11 v -22 l 4 -14 l 6 -10 l 8 -7 l 9 -4 z" stroke-linecap="round"/>
</g>
		<g transform="matrix(0.5642 0 0 0.5642 -360.2436 -0.0003)" id="344283">
<path style="stroke: none; stroke-width: 1; stroke-dasharray: none; stroke-linecap: butt; stroke-dashoffset: 0; stroke-linejoin: miter; stroke-miterlimit: 4; is-custom-font: none; font-file-url: none; fill: rgb(232,96,10); fill-rule: nonzero; opacity: 1;" transform=" translate(-39, -97.5)" d="m 0 0 h 78 l 1 1 v 19 h -58 v 66 h 47 v 20 h -47 l 1 68 l 57 1 v 19 l -1 1 h -78 l -1 -1 v -193 z" stroke-linecap="round"/>
</g>
		<g transform="matrix(0.5642 0 0 0.5642 420.6131 -0.0003)" id="555929">
<path style="stroke: none; stroke-width: 1; stroke-dasharray: none; stroke-linecap: butt; stroke-dashoffset: 0; stroke-linejoin: miter; stroke-miterlimit: 4; is-custom-font: none; font-file-url: none; fill: rgb(232,96,10); fill-rule: nonzero; opacity: 1;" transform=" translate(-33, -97.5)" d="m 0 0 h 72 l 1 1 v 19 h -58 v 66 h 46 l 1 1 v 19 h -47 l 1 68 l 57 1 v 19 l -1 1 h -79 v -194 z" stroke-linecap="round"/>
</g>
		<g transform="matrix(0.5642 0 0 0.5642 104.6595 -0.0003)" id="521801">
<path style="stroke: none; stroke-width: 1; stroke-dasharray: none; stroke-linecap: butt; stroke-dashoffset: 0; stroke-linejoin: miter; stroke-miterlimit: 4; is-custom-font: none; font-file-url: none; fill: rgb(232,96,10); fill-rule: nonzero; opacity: 1;" transform=" translate(-46, -97.5)" d="m 0 0 h 92 l 1 1 v 19 l -35 1 l -1 174 h -21 l -1 -1 l -1 -173 l -33 -1 l -2 -4 v -13 z" stroke-linecap="round"/>
</g>
</g>
</g>
<g transform="matrix(1 0 0 1 540 540)" id="683178">
<g style="">
		<g transform="matrix(0.5642 0 0 0.5642 -237.8116 -0.0003)" id="700689">
<path style="stroke: none; stroke-width: 1; stroke-dasharray: none; stroke-linecap: butt; stroke-dashoffset: 0; stroke-linejoin: miter; stroke-miterlimit: 4; is-custom-font: none; font-file-url: none; fill: rgb(232,96,10); fill-rule: nonzero; opacity: 1;" transform=" translate(-44, -97.5)" d="m 0 0 h 48 l 16 3 l 10 6 l 8 9 l 5 13 l 2 14 v 106 l -2 15 l -4 10 l -7 9 l -9 6 l -10 3 l -7 1 h -50 l -1 -1 v -193 z" stroke-linecap="round"/>
</g>
		<g transform="matrix(0.5642 0 0 0.5642 -88.2979 -0.0003)" id="550398">
<path style="stroke: none; stroke-width: 1; stroke-dasharray: none; stroke-linecap: butt; stroke-dashoffset: 0; stroke-linejoin: miter; stroke-miterlimit: 4; is-custom-font: none; font-file-url: none; fill: rgb(232,96,10); fill-rule: nonzero; opacity: 1;" transform=" translate(-61, -97.5)" d="m 0 0 h 30 l 3 12 l 10 49 l 13 62 l 5 27 l 2 1 l 1 -8 l 11 -57 l 17 -85 l 1 -1 h 30 v 195 h -20 l -1 -1 v -136 l -1 -11 l -5 28 l -13 66 l -9 46 l -3 8 h -20 l -2 -6 l -13 -63 l -10 -48 l -5 -27 l -1 4 l -1 92 v 47 l -1 1 h -18 l -1 -153 v -40 z" stroke-linecap="round"/>
</g>
		<g transform="matrix(0.5642 0 0 0.5642 -418.0744 -0.0003)" id="479063">
<path style="stroke: none; stroke-width: 1; stroke-dasharray: none; stroke-linecap: butt; stroke-dashoffset: 0; stroke-linejoin: miter; stroke-miterlimit: 4; is-custom-font: none; font-file-url: none; fill: rgb(232,96,10); fill-rule: nonzero; opacity: 1;" transform=" translate(-43.5, -97.5)" d="m 0 0 h 47 l 16 3 l 10 6 l 6 7 l 4 8 l 3 15 v 28 l -2 12 l -5 10 l -9 9 l -4 2 l -1 2 l 6 2 l 7 7 l 6 12 l 2 11 l 1 39 l 1 22 h -20 l -2 -1 l -1 -4 l -2 -57 l -3 -10 l -2 -4 l -4 -2 l -7 -3 l -7 -1 l -19 -1 v 83 h -21 l -1 -1 v -193 z" stroke-linecap="round"/>
</g>
		<g transform="matrix(0.5642 0 0 0.5642 47.3929 -0.0003)" id="876728">
<path style="stroke: none; stroke-width: 1; stroke-dasharray: none; stroke-linecap: butt; stroke-dashoffset: 0; stroke-linejoin: miter; stroke-miterlimit: 4; is-custom-font: none; font-file-url: none; fill: rgb(232,96,10); fill-rule: nonzero; opacity: 1;" transform=" translate(-43.5, -97.5)" d="m 0 0 h 47 l 16 3 l 9 5 l 7 8 l 5 12 l 2 11 v 28 l -2 12 l -5 10 l -4 5 l -7 5 h -3 v 3 l 6 2 l 5 4 l 5 8 l 4 11 l 1 6 l 1 39 l 1 23 h -18 l -4 -2 l -1 -4 l -2 -57 l -4 -11 l -9 -6 l -9 -2 l -20 -1 v 82 l -1 1 h -21 v -194 z" stroke-linecap="round"/>
</g>
		<g transform="matrix(0.5642 0 0 0.5642 -15.2336 -0.0003)" id="807740">
<path style="stroke: none; stroke-width: 1; stroke-dasharray: none; stroke-linecap: butt; stroke-dashoffset: 0; stroke-linejoin: miter; stroke-miterlimit: 4; is-custom-font: none; font-file-url: none; fill: rgb(232,96,10); fill-rule: nonzero; opacity: 1;" transform=" translate(-15.5, -97.5)" d="m 0 0 h 31 l 3 13 l 13 68 l 10 52 l 11 58 v 4 h -21 l -2 -5 l -6 -32 v -2 h -49 l -5 30 l -2 9 h -20 l 1 -13 l 13 -66 l 12 -63 l 10 -52 z" stroke-linecap="round"/>
</g>
		<g transform="matrix(0.5642 0 0 0.5642 301.5663 -0.0003)" id="192753">
<path style="stroke: none; stroke-width: 1; stroke-dasharray: none; stroke-linecap: butt; stroke-dashoffset: 0; stroke-linejoin: miter; stroke-miterlimit: 4; is-custom-font: none; font-file-url: none; fill: rgb(232,96,10); fill-rule: nonzero; opacity: 1;" transform=" translate(-14, -97.5)" d="m 0 0 h 30 l 5 24 l 16 84 l 16 82 v 5 h -21 l -2 -5 l -6 -32 v -2 h -49 l -2 14 l -5 24 l -1 1 h -19 l -1 -2 l 10 -51 l 18 -95 l 9 -46 z" stroke-linecap="round"/>
</g>
		<g transform="matrix(0.5642 0 0 0.5642 -301.2845 -0.0003)" id="402944">
<path style="stroke: none; stroke-width: 1; stroke-dasharray: none; stroke-linecap: butt; stroke-dashoffset: 0; stroke-linejoin: miter; stroke-miterlimit: 4; is-custom-font: none; font-file-url: none; fill: rgb(232,96,10); fill-rule: nonzero; opacity: 1;" transform=" translate(-14.5, -97.5)" d="m 0 0 h 29 l 2 3 l 17 89 l 10 52 l 9 47 v 4 h -21 l -2 -5 l -6 -32 v -2 h -49 l -2 13 l -5 26 h -20 l 1 -11 l 8 -42 l 25 -131 l 2 -10 z" stroke-linecap="round"/>
</g>
		<g transform="matrix(0.5642 0 0 0.5642 242.325 -0.0003)" id="707411">
<path style="stroke: none; stroke-width: 1; stroke-dasharray: none; stroke-linecap: butt; stroke-dashoffset: 0; stroke-linejoin: miter; stroke-miterlimit: 4; is-custom-font: none; font-file-url: none; fill: rgb(232,96,10); fill-rule: nonzero; opacity: 1;" transform=" translate(-42, -97.5)" d="m 0 0 h 46 l 15 3 l 9 5 l 7 7 l 5 10 l 3 14 v 43 l -3 13 l -7 11 l -7 6 l -9 4 l -9 2 l -11 1 h -18 v 75 l -1 1 h -21 v -194 z" stroke-linecap="round"/>
</g>
		<g transform="matrix(0.5642 0 0 0.5642 363.6286 -0.0003)" id="45705">
<path style="stroke: none; stroke-width: 1; stroke-dasharray: none; stroke-linecap: butt; stroke-dashoffset: 0; stroke-linejoin: miter; stroke-miterlimit: 4; is-custom-font: none; font-file-url: none; fill: rgb(232,96,10); fill-rule: nonzero; opacity: 1;" transform=" translate(-5, -99.5)" d="m 0 0 h 9 l 14 3 l 8 4 l 6 5 l 7 11 l 4 13 l 1 8 v 23 h -21 l -1 -27 l -4 -11 l -5 -5 l -5 -2 h -14 l -8 4 l -4 5 l -3 9 v 118 l 3 11 l 4 5 l 6 3 l 4 1 h 8 l 10 -3 l 5 -6 l 3 -10 l 1 -32 l 1 -1 h 20 v 30 l -3 16 l -6 12 l -7 7 l -11 6 l -12 2 h -13 l -11 -3 l -9 -5 l -8 -9 l -4 -8 l -3 -12 l -1 -18 v -98 l 2 -15 l 4 -11 l 6 -8 l 9 -7 l 12 -4 z" stroke-linecap="round"/>
</g>
		<g transform="matrix(0.5642 0 0 0.5642 183.93 -0.0003)" id="127237">
<path style="stroke: none; stroke-width: 1; stroke-dasharray: none; stroke-linecap: butt; stroke-dashoffset: 0; stroke-linejoin: miter; stroke-miterlimit: 4; is-custom-font: none; font-file-url: none; fill: rgb(232,96,10); fill-rule: nonzero; opacity: 1;" transform=" translate(-5.5, -99.5)" d="m 0 0 h 9 l 12 2 l 9 4 l 8 7 l 6 9 l 4 12 l 1 6 v 14 h -20 l -2 -17 l -5 -10 l -5 -4 l -3 -1 h -15 l -6 3 l -4 5 l -3 7 l -1 5 v 9 l 3 12 l 7 11 l 6 7 l 8 7 l 14 12 l 8 7 l 9 11 l 8 16 l 2 10 v 12 l -2 13 l -4 10 l -6 8 l -7 6 l -8 4 l -11 2 h -12 l -14 -3 l -10 -6 l -6 -7 l -5 -11 l -3 -16 l -1 -16 l 1 -1 h 19 l 1 1 l 1 16 l 3 12 l 3 5 l 7 4 l 11 1 l 9 -2 l 5 -2 l 2 -5 l 3 -7 l 1 -6 v -9 l -4 -13 l -7 -10 l -12 -12 l -11 -9 l -10 -9 l -9 -10 l -8 -14 l -3 -11 v -22 l 4 -14 l 6 -10 l 8 -7 l 9 -4 z" stroke-linecap="round"/>
</g>
		<g transform="matrix(0.5642 0 0 0.5642 -156.5664 -0.0003)" id="948653">
<path style="stroke: none; stroke-width: 1; stroke-dasharray: none; stroke-linecap: butt; stroke-dashoffset: 0; stroke-linejoin: miter; stroke-miterlimit: 4; is-custom-font: none; font-file-url: none; fill: rgb(232,96,10); fill-rule: nonzero; opacity: 1;" transform=" translate(-6, -99.5)" d="m 0 0 h 9 l 12 2 l 12 6 l 7 7 l 6 12 l 3 13 v 14 h -20 l -2 -17 l -5 -10 l -5 -4 l -3 -1 h -15 l -6 3 l -4 5 l -3 7 l -1 5 v 9 l 2 9 l 5 10 l 9 11 l 8 7 l 14 12 l 8 7 l 10 13 l 7 14 l 2 11 v 11 l -2 13 l -4 10 l -6 8 l -9 7 l -6 3 l -13 2 h -10 l -14 -3 l -10 -6 l -6 -7 l -5 -11 l -3 -14 v -19 h 19 l 1 1 l 2 21 l 3 8 l 2 4 l 7 4 l 11 1 l 9 -2 l 5 -2 l 2 -5 l 3 -7 l 1 -6 v -9 l -4 -13 l -7 -10 l -12 -12 l -11 -9 l -10 -9 l -9 -10 l -8 -14 l -3 -11 v -22 l 4 -14 l 6 -10 l 8 -7 l 9 -4 z" stroke-linecap="round"/>
</g>
		<g transform="matrix(0.5642 0 0 0.5642 -360.2436 -0.0003)" id="344283">
<path style="stroke: none; stroke-width: 1; stroke-dasharray: none; stroke-linecap: butt; stroke-dashoffset: 0; stroke-linejoin: miter; stroke-miterlimit: 4; is-custom-font: none; font-file-url: none; fill: rgb(232,96,10); fill-rule: nonzero; opacity: 1;" transform=" translate(-39, -97.5)" d="m 0 0 h 78 l 1 1 v 19 h -58 v 66 h 47 v 20 h -47 l 1 68 l 57 1 v 19 l -1 1 h -78 l -1 -1 v -193 z" stroke-linecap="round"/>
</g>
		<g transform="matrix(0.5642 0 0 0.5642 420.6131 -0.0003)" id="555929">
<path style="stroke: none; stroke-width: 1; stroke-dasharray: none; stroke-linecap: butt; stroke-dashoffset: 0; stroke-linejoin: miter; stroke-miterlimit: 4; is-custom-font: none; font-file-url: none; fill: rgb(232,96,10); fill-rule: nonzero; opacity: 1;" transform=" translate(-33, -97.5)" d="m 0 0 h 72 l 1 1 v 19 h -58 v 66 h 46 l 1 1 v 19 h -47 l 1 68 l 57 1 v 19 l -1 1 h -79 v -194 z" stroke-linecap="round"/>
</g>
		<g transform="matrix(0.5642 0 0 0.5642 104.6595 -0.0003)" id="521801">
<path style="stroke: none; stroke-width: 1; stroke-dasharray: none; stroke-linecap: butt; stroke-dashoffset: 0; stroke-linejoin: miter; stroke-miterlimit: 4; is-custom-font: none; font-file-url: none; fill: rgb(232,96,10); fill-rule: nonzero; opacity: 1;" transform=" translate(-46, -97.5)" d="m 0 0 h 92 l 1 1 v 19 l -35 1 l -1 174 h -21 l -1 -1 l -1 -173 l -33 -1 l -2 -4 v -13 z" stroke-linecap="round"/>
</g>
</g>
</g>
<g transform="matrix(0.18 0 0 0.18 90 31.9752)" id="288739">
<g style="" vector-effect="non-scaling-stroke">
		<g transform="matrix(1 0 0 1 -450 -450)">
<rect style="stroke: none; stroke-width: 1; stroke-dasharray: none; stroke-linecap: butt; stroke-dashoffset: 0; stroke-linejoin: miter; stroke-miterlimit: 4; is-custom-font: none; font-file-url: none; fill: rgb(255,255,255); fill-opacity: 0.01; fill-rule: nonzero; opacity: 1;" x="-50" y="-50" rx="0" ry="0" width="100" height="100"/>
</g>
		<g transform="matrix(0.5642 0 0 0.5642 -237.8116 -0.0003)" id="700689">
<path style="stroke: none; stroke-width: 1; stroke-dasharray: none; stroke-linecap: butt; stroke-dashoffset: 0; stroke-linejoin: miter; stroke-miterlimit: 4; is-custom-font: none; font-file-url: none; fill: rgb(232,96,10); fill-rule: nonzero; opacity: 1;" transform=" translate(-44, -97.5)" d="m 0 0 h 48 l 16 3 l 10 6 l 8 9 l 5 13 l 2 14 v 106 l -2 15 l -4 10 l -7 9 l -9 6 l -10 3 l -7 1 h -50 l -1 -1 v -193 z" stroke-linecap="round"/>
</g>
		<g transform="matrix(0.5642 0 0 0.5642 -88.2979 -0.0003)" id="550398">
<path style="stroke: none; stroke-width: 1; stroke-dasharray: none; stroke-linecap: butt; stroke-dashoffset: 0; stroke-linejoin: miter; stroke-miterlimit: 4; is-custom-font: none; font-file-url: none; fill: rgb(232,96,10); fill-rule: nonzero; opacity: 1;" transform=" translate(-61, -97.5)" d="m 0 0 h 30 l 3 12 l 10 49 l 13 62 l 5 27 l 2 1 l 1 -8 l 11 -57 l 17 -85 l 1 -1 h 30 v 195 h -20 l -1 -1 v -136 l -1 -11 l -5 28 l -13 66 l -9 46 l -3 8 h -20 l -2 -6 l -13 -63 l -10 -48 l -5 -27 l -1 4 l -1 92 v 47 l -1 1 h -18 l -1 -153 v -40 z" stroke-linecap="round"/>
</g>
		<g transform="matrix(0.5642 0 0 0.5642 -418.0744 -0.0003)" id="479063">
<path style="stroke: none; stroke-width: 1; stroke-dasharray: none; stroke-linecap: butt; stroke-dashoffset: 0; stroke-linejoin: miter; stroke-miterlimit: 4; is-custom-font: none; font-file-url: none; fill: rgb(232,96,10); fill-rule: nonzero; opacity: 1;" transform=" translate(-43.5, -97.5)" d="m 0 0 h 47 l 16 3 l 10 6 l 6 7 l 4 8 l 3 15 v 28 l -2 12 l -5 10 l -9 9 l -4 2 l -1 2 l 6 2 l 7 7 l 6 12 l 2 11 l 1 39 l 1 22 h -20 l -2 -1 l -1 -4 l -2 -57 l -3 -10 l -2 -4 l -4 -2 l -7 -3 l -7 -1 l -19 -1 v 83 h -21 l -1 -1 v -193 z" stroke-linecap="round"/>
</g>
		<g transform="matrix(0.5642 0 0 0.5642 47.3929 -0.0003)" id="876728">
<path style="stroke: none; stroke-width: 1; stroke-dasharray: none; stroke-linecap: butt; stroke-dashoffset: 0; stroke-linejoin: miter; stroke-miterlimit: 4; is-custom-font: none; font-file-url: none; fill: rgb(232,96,10); fill-rule: nonzero; opacity: 1;" transform=" translate(-43.5, -97.5)" d="m 0 0 h 47 l 16 3 l 9 5 l 7 8 l 5 12 l 2 11 v 28 l -2 12 l -5 10 l -4 5 l -7 5 h -3 v 3 l 6 2 l 5 4 l 5 8 l 4 11 l 1 6 l 1 39 l 1 23 h -18 l -4 -2 l -1 -4 l -2 -57 l -4 -11 l -9 -6 l -9 -2 l -20 -1 v 82 l -1 1 h -21 v -194 z" stroke-linecap="round"/>
</g>
		<g transform="matrix(0.5642 0 0 0.5642 -15.2336 -0.0003)" id="807740">
<path style="stroke: none; stroke-width: 1; stroke-dasharray: none; stroke-linecap: butt; stroke-dashoffset: 0; stroke-linejoin: miter; stroke-miterlimit: 4; is-custom-font: none; font-file-url: none; fill: rgb(232,96,10); fill-rule: nonzero; opacity: 1;" transform=" translate(-15.5, -97.5)" d="m 0 0 h 31 l 3 13 l 13 68 l 10 52 l 11 58 v 4 h -21 l -2 -5 l -6 -32 v -2 h -49 l -5 30 l -2 9 h -20 l 1 -13 l 13 -66 l 12 -63 l 10 -52 z" stroke-linecap="round"/>
</g>
		<g transform="matrix(0.5642 0 0 0.5642 301.5663 -0.0003)" id="192753">
<path style="stroke: none; stroke-width: 1; stroke-dasharray: none; stroke-linecap: butt; stroke-dashoffset: 0; stroke-linejoin: miter; stroke-miterlimit: 4; is-custom-font: none; font-file-url: none; fill: rgb(232,96,10); fill-rule: nonzero; opacity: 1;" transform=" translate(-14, -97.5)" d="m 0 0 h 30 l 5 24 l 16 84 l 16 82 v 5 h -21 l -2 -5 l -6 -32 v -2 h -49 l -2 14 l -5 24 l -1 1 h -19 l -1 -2 l 10 -51 l 18 -95 l 9 -46 z" stroke-linecap="round"/>
</g>
		<g transform="matrix(0.5642 0 0 0.5642 -301.2845 -0.0003)" id="402944">
<path style="stroke: none; stroke-width: 1; stroke-dasharray: none; stroke-linecap: butt; stroke-dashoffset: 0; stroke-linejoin: miter; stroke-miterlimit: 4; is-custom-font: none; font-file-url: none; fill: rgb(232,96,10); fill-rule: nonzero; opacity: 1;" transform=" translate(-14.5, -97.5)" d="m 0 0 h 29 l 2 3 l 17 89 l 10 52 l 9 47 v 4 h -21 l -2 -5 l -6 -32 v -2 h -49 l -2 13 l -5 26 h -20 l 1 -11 l 8 -42 l 25 -131 l 2 -10 z" stroke-linecap="round"/>
</g>
		<g transform="matrix(0.5642 0 0 0.5642 242.325 -0.0003)" id="707411">
<path style="stroke: none; stroke-width: 1; stroke-dasharray: none; stroke-linecap: butt; stroke-dashoffset: 0; stroke-linejoin: miter; stroke-miterlimit: 4; is-custom-font: none; font-file-url: none; fill: rgb(232,96,10); fill-rule: nonzero; opacity: 1;" transform=" translate(-42, -97.5)" d="m 0 0 h 46 l 15 3 l 9 5 l 7 7 l 5 10 l 3 14 v 43 l -3 13 l -7 11 l -7 6 l -9 4 l -9 2 l -11 1 h -18 v 75 l -1 1 h -21 v -194 z" stroke-linecap="round"/>
</g>
		<g transform="matrix(0.5642 0 0 0.5642 363.6286 -0.0003)" id="45705">
<path style="stroke: none; stroke-width: 1; stroke-dasharray: none; stroke-linecap: butt; stroke-dashoffset: 0; stroke-linejoin: miter; stroke-miterlimit: 4; is-custom-font: none; font-file-url: none; fill: rgb(232,96,10); fill-rule: nonzero; opacity: 1;" transform=" translate(-5, -99.5)" d="m 0 0 h 9 l 14 3 l 8 4 l 6 5 l 7 11 l 4 13 l 1 8 v 23 h -21 l -1 -27 l -4 -11 l -5 -5 l -5 -2 h -14 l -8 4 l -4 5 l -3 9 v 118 l 3 11 l 4 5 l 6 3 l 4 1 h 8 l 10 -3 l 5 -6 l 3 -10 l 1 -32 l 1 -1 h 20 v 30 l -3 16 l -6 12 l -7 7 l -11 6 l -12 2 h -13 l -11 -3 l -9 -5 l -8 -9 l -4 -8 l -3 -12 l -1 -18 v -98 l 2 -15 l 4 -11 l 6 -8 l 9 -7 l 12 -4 z" stroke-linecap="round"/>
</g>
		<g transform="matrix(0.5642 0 0 0.5642 183.93 -0.0003)" id="127237">
<path style="stroke: none; stroke-width: 1; stroke-dasharray: none; stroke-linecap: butt; stroke-dashoffset: 0; stroke-linejoin: miter; stroke-miterlimit: 4; is-custom-font: none; font-file-url: none; fill: rgb(232,96,10); fill-rule: nonzero; opacity: 1;" transform=" translate(-5.5, -99.5)" d="m 0 0 h 9 l 12 2 l 9 4 l 8 7 l 6 9 l 4 12 l 1 6 v 14 h -20 l -2 -17 l -5 -10 l -5 -4 l -3 -1 h -15 l -6 3 l -4 5 l -3 7 l -1 5 v 9 l 3 12 l 7 11 l 6 7 l 8 7 l 14 12 l 8 7 l 9 11 l 8 16 l 2 10 v 12 l -2 13 l -4 10 l -6 8 l -7 6 l -8 4 l -11 2 h -12 l -14 -3 l -10 -6 l -6 -7 l -5 -11 l -3 -16 l -1 -16 l 1 -1 h 19 l 1 1 l 1 16 l 3 12 l 3 5 l 7 4 l 11 1 l 9 -2 l 5 -2 l 2 -5 l 3 -7 l 1 -6 v -9 l -4 -13 l -7 -10 l -12 -12 l -11 -9 l -10 -9 l -9 -10 l -8 -14 l -3 -11 v -22 l 4 -14 l 6 -10 l 8 -7 l 9 -4 z" stroke-linecap="round"/>
</g>
		<g transform="matrix(0.5642 0 0 0.5642 -156.5664 -0.0003)" id="948653">
<path style="stroke: none; stroke-width: 1; stroke-dasharray: none; stroke-linecap: butt; stroke-dashoffset: 0; stroke-linejoin: miter; stroke-miterlimit: 4; is-custom-font: none; font-file-url: none; fill: rgb(232,96,10); fill-rule: nonzero; opacity: 1;" transform=" translate(-6, -99.5)" d="m 0 0 h 9 l 12 2 l 12 6 l 7 7 l 6 12 l 3 13 v 14 h -20 l -2 -17 l -5 -10 l -5 -4 l -3 -1 h -15 l -6 3 l -4 5 l -3 7 l -1 5 v 9 l 2 9 l 5 10 l 9 11 l 8 7 l 14 12 l 8 7 l 10 13 l 7 14 l 2 11 v 11 l -2 13 l -4 10 l -6 8 l -9 7 l -6 3 l -13 2 h -10 l -14 -3 l -10 -6 l -6 -7 l -5 -11 l -3 -14 v -19 h 19 l 1 1 l 2 21 l 3 8 l 2 4 l 7 4 l 11 1 l 9 -2 l 5 -2 l 2 -5 l 3 -7 l 1 -6 v -9 l -4 -13 l -7 -10 l -12 -12 l -11 -9 l -10 -9 l -9 -10 l -8 -14 l -3 -11 v -22 l 4 -14 l 6 -10 l 8 -7 l 9 -4 z" stroke-linecap="round"/>
</g>
		<g transform="matrix(0.5642 0 0 0.5642 -360.2436 -0.0003)" id="344283">
<path style="stroke: none; stroke-width: 1; stroke-dasharray: none; stroke-linecap: butt; stroke-dashoffset: 0; stroke-linejoin: miter; stroke-miterlimit: 4; is-custom-font: none; font-file-url: none; fill: rgb(232,96,10); fill-rule: nonzero; opacity: 1;" transform=" translate(-39, -97.5)" d="m 0 0 h 78 l 1 1 v 19 h -58 v 66 h 47 v 20 h -47 l 1 68 l 57 1 v 19 l -1 1 h -78 l -1 -1 v -193 z" stroke-linecap="round"/>
</g>
		<g transform="matrix(0.5642 0 0 0.5642 420.6131 -0.0003)" id="555929">
<path style="stroke: none; stroke-width: 1; stroke-dasharray: none; stroke-linecap: butt; stroke-dashoffset: 0; stroke-linejoin: miter; stroke-miterlimit: 4; is-custom-font: none; font-file-url: none; fill: rgb(232,96,10); fill-rule: nonzero; opacity: 1;" transform=" translate(-33, -97.5)" d="m 0 0 h 72 l 1 1 v 19 h -58 v 66 h 46 l 1 1 v 19 h -47 l 1 68 l 57 1 v 19 l -1 1 h -79 v -194 z" stroke-linecap="round"/>
</g>
		<g transform="matrix(0.5642 0 0 0.5642 104.6595 -0.0003)" id="521801">
<path style="stroke: none; stroke-width: 1; stroke-dasharray: none; stroke-linecap: butt; stroke-dashoffset: 0; stroke-linejoin: miter; stroke-miterlimit: 4; is-custom-font: none; font-file-url: none; fill: rgb(232,96,10); fill-rule: nonzero; opacity: 1;" transform=" translate(-46, -97.5)" d="m 0 0 h 92 l 1 1 v 19 l -35 1 l -1 174 h -21 l -1 -1 l -1 -173 l -33 -1 l -2 -4 v -13 z" stroke-linecap="round"/>
</g>
</g>
</g>
<g transform="matrix(0 0.1 -0.1 0 88.3972 11.1596)" id="623130">
<g style="" vector-effect="non-scaling-stroke">
		<g transform="matrix(1 0 0 1 -450 -450)">
<rect style="stroke: none; stroke-width: 1; stroke-dasharray: none; stroke-linecap: butt; stroke-dashoffset: 0; stroke-linejoin: miter; stroke-miterlimit: 4; is-custom-font: none; font-file-url: none; fill: none; fill-rule: nonzero; opacity: 1;" x="-50" y="-50" rx="0" ry="0" width="100" height="100"/>
</g>
		<g transform="matrix(0 -0.6801 0.6801 0 -0.0046 0.0149)" id="456786">
<path style="stroke: none; stroke-width: 0; stroke-dasharray: none; stroke-linecap: butt; stroke-dashoffset: 0; stroke-linejoin: miter; stroke-miterlimit: 4; is-custom-font: none; font-file-url: none; fill: rgb(232,96,10); fill-rule: nonzero; opacity: 1;" transform=" translate(-72, -118.5)" d="m 0 0 h 3 v 16 l -2 4 l 10 -6 l 11 -5 l 16 -4 h 12 l 24 6 l 37 12 l 31 8 l 33 6 l 24 2 l 1 3 l -5 7 l -6 4 l -1 2 h 21 l 21 3 l 28 7 l 29 10 l 26 11 l 20 10 l 23 13 l 21 12 l 19 12 l 15 10 l 14 10 l 18 13 l 10 8 l 3 3 v 3 h -7 l -4 -1 h -7 l -27 7 l -17 6 l -26 11 l -27 10 l -15 4 l -13 2 h -20 l -23 -3 l -7 -1 l 7 16 v 6 l -6 -1 l -24 -16 l -25 -10 l -21 -5 l -15 -3 h -30 l -78 10 l -12 1 h -41 l -21 -6 l -20 -8 l -21 -11 l -7 -3 l 7 15 v 5 l -7 -1 l -15 -6 l -5 -1 h -9 l -15 2 l -27 5 l -8 1 h -20 l -17 -5 l -21 -9 l -20 -11 l -16 -11 l -3 -1 l -16 6 l -26 11 l -24 13 l -15 8 h -4 l 1 -7 l 9 -10 l 7 -7 l 19 -13 l 21 -13 l 16 -8 h 2 l 2 -13 l 7 -16 l 6 -10 l 19 -19 l 5 -8 l 3 -9 l 5 1 l 1 3 v 8 l 4 -2 l 10 -16 l 9 -11 l 12 -12 l 13 -8 l 15 -5 l 12 -2 l 49 -1 l 25 -5 l 15 -6 l 16 -10 z m -6 13 l -14 10 l -16 7 l -18 4 l -6 1 l -51 1 l -14 2 l -15 5 l -12 9 l -11 11 l -12 17 l -8 14 l -9 16 l -4 2 l 2 -18 l -5 2 l -5 6 l -12 12 l -7 12 l -6 14 l 1 4 l 36 -12 l 29 -8 l 33 -7 l 36 -6 l 38 -4 l 16 -1 h 87 l 61 4 l 30 3 l 49 6 l 51 8 l 62 12 l 56 12 l 54 12 l 20 5 l 3 -1 l -9 -6 l -17 -11 l -15 -10 l -20 -13 l -21 -12 l -17 -10 l -17 -9 l -38 -16 l -24 -8 l -27 -7 l -17 -2 h -23 l -18 2 l -13 5 l -12 9 l -7 9 h -5 l 2 -6 l 7 -11 l 5 -5 l 7 -6 l 10 -5 l 19 -7 l 1 -3 l -23 -2 l -29 -7 l -32 -9 l -32 -10 l -18 -3 h -14 l -14 4 l -12 6 l -12 11 l -7 9 l -7 13 l -3 14 h -5 l 1 -17 l 4 -12 l 11 -19 l 3 -7 z m 8 116 l -65 4 l -35 4 l -51 9 l -36 8 l -24 7 l -7 3 l 5 5 l 21 13 l 19 9 l 15 5 l 16 2 l 16 -1 l 35 -7 h 22 l 7 2 l 4 -1 l -10 -14 l -16 -16 l -1 -4 l 9 2 l 13 10 l 22 13 l 19 10 l 23 9 l 16 4 h 35 l 46 -5 l 38 -4 l 6 -1 h 33 l 26 4 l 17 5 l 22 9 l 12 7 h 2 l -1 -5 l -12 -16 l -11 -12 l -7 -8 v -4 l 5 1 l 10 9 l 9 10 l 5 6 l 6 4 l 17 4 l 22 2 h 16 l 17 -4 l 16 -5 l 60 -23 l 11 -3 v -2 l -12 -2 l -38 -7 l -64 -10 l -55 -8 l -82 -10 l -40 -4 l -56 -4 z" stroke-linecap="round"/>
</g>
</g>
</g>
</svg>